<?xml version="1.0" encoding="UTF-8"?>
<svg id="_レイヤー_1" data-name=" レイヤー 1" xmlns="http://www.w3.org/2000/svg" version="1.1" viewBox="0 0 448 512">
  <defs>
    <style>
      .cls-1 {
        fill: #4d4e43;
        stroke-width: 0px;
      }
    </style>
  </defs>
  <path class="cls-1" d="M384,336h-192c-8.8,0-16-7.2-16-16V64c0-8.8,7.2-16,16-16h140.1l67.9,67.9v204.1c0,8.8-7.2,16-16,16ZM192,384h192c35.3,0,64-28.7,64-64V115.9c0-12.7-5.1-24.9-14.1-33.9L366.1,14.1C357.1,5.1,344.9,0,332.2,0h-140.2C156.7,0,128,28.7,128,64v256c0,35.3,28.7,64,64,64ZM64,128C28.7,128,0,156.7,0,192v256c0,35.3,28.7,64,64,64h192c35.3,0,64-28.7,64-64v-32h-48v32c0,8.8-7.2,16-16,16H64c-8.8,0-16-7.2-16-16V192c0-8.8,7.2-16,16-16h32v-48h-32Z"/>
</svg>