<?xml version="1.0" encoding="UTF-8"?>
<svg id="_レイヤー_2" data-name="レイヤー 2" xmlns="http://www.w3.org/2000/svg" viewBox="0 0 433.4 448">
  <defs>
    <style>
      .cls-1 {
        fill: #ca2322;
        stroke-width: 0px;
      }
    </style>
  </defs>
  <g id="_レイヤー_1-2" data-name="レイヤー 1">
    <path class="cls-1" d="M433.2,354.7h-29.3c-1.5,13.5-10.5,30.8-33,30.8-20.5,0-35.3-14.2-49.5-35.8,44.2-34.2,74.7-87.5,74.7-153C396.2,79.2,299.5,0,197.7,0S0,79.7,0,196.7c0,134.1,131.3,221.6,249,189,19.7,33.6,45.7,62.3,95.2,62.3,81.8,0,90.8-75.3,89-93.3ZM289.7,297.2c-19.5-29.2-43.7-52.2-91.5-52.2-30.5,0-54.3,10-69,22.8l12.2,24.3c6.2-3,13-4,19.8-4,35.5,0,53.7,30.8,69.2,61.3-10,3-20.7,4.2-32.7,4.2-75,0-107.5-53-107.5-156.7S122.7,39,197.7,39s108.7,53.5,108.7,157.7c.1,41.8-5.4,75.6-16.7,100.5Z"/>
  </g>
</svg>